<svg xmlns="http://www.w3.org/2000/svg" version="1.1" xmlns:xlink="http://www.w3.org/1999/xlink" viewBox="0 0 12.381489837400473 12.192403565663165"><g transform="matrix(1,0,0,1,3.9369489238765447,3.290945162047737)"><rect width="12.381489837400473" height="12.381489837400473" x="-3.9369489238765443" y="-3.3854882979163907" fill="#ffffff"></rect><g><path d=" M -0.9056866618264996 -0.20744910106283734 L -0.9168122359425852 -0.21894786623947635 L -0.8864136725260644 -0.3040179981437573 L -1.2674645860019969 -0.6978507054436429 L -1.3534910199989458 -0.670274399422557 L -1.3646165941150314 -0.681773164599196 L -1.0110295649333823 -1.0238845686688287 L -0.8914296431854618 -0.9002728430199596 L -0.9029284083621009 -0.889147268903874 L -1.029560556968993 -0.9294250411759595 L -1.1926992879125589 -0.7715809584039948 L -1.0272063729357852 -0.6005368264014896 L -0.9150934124635549 -0.7090111740333245 L -0.9368503625724676 -0.8048424587057021 L -0.9253515973958286 -0.8159680328217878 L -0.7730703016819067 -0.6585786844665414 L -0.7845690668585457 -0.6474531103504558 L -0.8782399482040213 -0.6709215143857078 L -0.9903529086762516 -0.5624471667538731 L -0.8109530260543709 -0.37702957828056916 L -0.7170211909984827 -0.41225471650646395 L -0.7058956168823971 -0.400755951329825 L -0.9056866618264996 -0.20744910106283734 M -0.43129309879733246 -0.6528333236265668 L -0.44046344217859157 -0.6659445707934002 L -0.39701361184964507 -0.7451475520781079 L -0.711097872657769 -1.1942077675421525 L -0.800399419893011 -1.180561022091612 L -0.8095697632742701 -1.1936722692584456 L -0.5817618437505394 -1.3530069855078222 Q -0.495719284218195 -1.4131873639473351 -0.42121050980080793 -1.4122165216228926 Q -0.3467017353834209 -1.4112456792984502 -0.3031426043224402 -1.3489672552559915 Q -0.27104640248803336 -1.3030778901720745 -0.277540316672129 -1.2460618478807193 Q -0.2840342308562245 -1.1890458055893642 -0.32165794501714406 -1.1346633071846621 L -0.006873475148218788 -1.0143606159041272 L 0.0692362914320579 -1.0224416697398475 L 0.078406634813317 -1.009330422573014 L -0.05352528980294441 -0.9170538422990944 L -0.38509678004886827 -1.0561234178938204 L -0.4531113747268167 -1.0085522616035387 L -0.3115441987786294 -0.8061473834655477 L -0.22658622276962131 -0.8155357972001891 L -0.2174158793883622 -0.8024245500333557 L -0.43129309879733246 -0.6528333236265668 M -0.5772807356590551 -1.2890232401479855 L -0.6256284595867534 -1.2552075989295925 L -0.48348813717723743 -1.0519832678436745 L -0.4302236955619767 -1.0892377878300397 Q -0.3794176127904971 -1.1247728684324185 -0.3665764677766187 -1.1770758797676424 Q -0.35373532276274017 -1.229378891102866 -0.3852583781358183 -1.274448803238856 Q -0.41792772643155385 -1.3211576212707001 -0.4689233778678564 -1.325150556855847 Q -0.5199190293041589 -1.329143492440994 -0.5772807356590551 -1.2890232401479855 M 0.1576689486221412 -1.04863779213653 L 0.15075288730681619 -1.0630658237376414 L 0.2065046439991294 -1.1341484631492522 L -0.03037045605075195 -1.6283085454873127 L -0.12070251931969017 -1.6293660640812582 L -0.12761858063501513 -1.6437940956823693 L 0.3250609108498504 -1.8607855194506913 L 0.3994085699895942 -1.7056841797387454 L 0.3849805383884829 -1.6987681184234202 L 0.2757929616406544 -1.7761766004130384 L 0.06388124749933285 -1.6745969498442026 L 0.16632540573258445 -1.460881731752742 L 0.3160162335941137 -1.532635867899239 L 0.3256962624171996 -1.6304279792476715 L 0.3401242940183108 -1.6373440405629964 L 0.4356523909362374 -1.4380568540726473 L 0.4212243593351262 -1.4311407927573223 L 0.33979019436554336 -1.483039509270419 L 0.19009936650401416 -1.411285373123922 L 0.3016208552136298 -1.1786333635560031 L 0.5378798726818266 -1.29188386759445 L 0.5403379971849793 -1.4394438812293335 L 0.5547660287860905 -1.4463599425446585 L 0.6355974954089515 -1.2777323232066709 L 0.1576689486221412 -1.04863779213653 M 0.7865587041025596 -1.3364304783636398 L 0.7820487966814214 -1.3517817237545766 L 0.848489707920194 -1.4129912435514314 L 0.6940253787462097 -1.938771398191021 L 0.6050349304017459 -1.9543181053488512 L 0.6005250229806077 -1.9696693507397882 L 1.082170347121254 -2.1111676960779997 L 1.1306518518984898 -1.946141808125428 L 1.115300606507553 -1.9416319007042897 L 1.0199574740897983 -2.035566383727142 L 0.7944860574104122 -1.9693271184791743 L 0.8612890610860222 -1.7419367961259211 L 1.0205582320169928 -1.7887270856202302 L 1.0458133127396287 -1.8836964538275272 L 1.0611645581305655 -1.8882063612486655 L 1.1234576543850374 -1.676167284286349 L 1.1081064089941004 -1.6716573768652108 L 1.0360610387771554 -1.7359571795888844 L 0.8767918678461848 -1.6891668900945753 L 0.9495141250120387 -1.4416280581657173 L 1.200890768288631 -1.5154777921868559 L 1.2270079193018555 -1.6607289347742806 L 1.2423591646927923 -1.6652388421954187 L 1.2950687076773453 -1.4858211616888435 L 0.7865587041025596 -1.3364304783636398 M 1.4536489283251866 -1.5183183585548086 L 1.4515880372580485 -1.5341850761740703 L 1.5267610675377168 -1.58428513124961 L 1.4561755484882464 -2.127720209709325 L 1.3706980628728893 -2.1569537427300944 L 1.3686371718057515 -2.172820460349356 L 1.6433297205892208 -2.2084996369491794 L 1.6453906116563584 -2.1926329193299177 L 1.5603008828646519 -2.1412448073374173 L 1.6310152076058182 -1.596818059026498 L 1.866040962341133 -1.627345007958477 L 1.9142949428048754 -1.807057426475965 L 1.9301616604241372 -1.8091183175431027 L 1.959400552439155 -1.5840092613198264 L 1.4536489283251866 -1.5183183585548086 M 2.071209928141444 -1.596410148138142 L 2.0718294328060436 -1.6123981503263625 L 2.136059919792899 -1.6429341052227042 L 2.4167181345282915 -2.248521395794049 L 2.471676892050299 -2.2463918485094863 L 2.7017516543258067 -1.6240168781227675 L 2.767307527993629 -1.5854496974162589 L 2.7666880233290287 -1.5694616952280387 L 2.502885987223393 -1.57968352219394 L 2.503505491887993 -1.5956715243821602 L 2.5927946703770175 -1.6272380035135918 L 2.5258195877332494 -1.8099682372048462 L 2.2850003047731806 -1.819299526215385 L 2.205046898271137 -1.64126174149338 L 2.2876674623470183 -1.6040348373542614 L 2.2870479576824185 -1.588046835166041 L 2.071209928141444 -1.596410148138142 M 2.31011260520331 -1.87336774578203 L 2.5059656320090093 -1.8657788136406788 L 2.4173704076166986 -2.1103925626714233 L 2.31011260520331 -1.87336774578203 M 2.885466842330392 -1.5532802245468669 L 2.8890847720513517 -1.5688658135487044 L 2.9770316406755524 -1.5895140168409414 L 3.1004934924032903 -2.1213722415286473 L 3.032062612911621 -2.1803740612632674 L 3.0356805426325804 -2.195959650265105 L 3.188614134713111 -2.1604587148781915 L 3.455191365283856 -1.6150537459411347 L 3.549257538028799 -2.0202790599889107 L 3.4577440125243086 -2.0815593557595653 L 3.4613619422452677 -2.097144944761403 L 3.707809068336824 -2.039936431048733 L 3.7041911386158644 -2.0243508420468954 L 3.6174444899118385 -2.0044506174597134 L 3.4795109193002633 -1.4102500367646575 L 3.437624648857825 -1.4199732228897357 L 3.1471989865681333 -2.0130043643010396 L 3.0449924719510317 -1.5727114749991296 L 3.1365059974555223 -1.5114311792284747 L 3.132888067734563 -1.4958455902266372 L 2.885466842330392 -1.5532802245468669 M 4.006582351548527 -1.2001710378685264 Q 3.912262818728381 -1.2415573366712633 3.8604595137594884 -1.3101533831630245 Q 3.8086562087905955 -1.3787494296547858 3.8004435774019916 -1.4620714116623865 Q 3.792230946013388 -1.545393393669987 3.8295991575537234 -1.6305556902940022 Q 3.8585293858430156 -1.696487790906143 3.909885405671552 -1.7438434582266547 Q 3.9612414255000883 -1.7911991255471662 4.025744457363331 -1.8174975833051716 Q 4.090247489226573 -1.8437960410631766 4.15938962596004 -1.8445802144690187 Q 4.228531762693509 -1.8453643878748607 4.2935481396860355 -1.816835968311809 Q 4.340250044286302 -1.7963437232735604 4.3696886142521985 -1.7763282143276697 Q 4.399127184218095 -1.756312705381779 4.420090592131933 -1.7356478674042373 Q 4.44105400004577 -1.7149830294266954 4.461068939227573 -1.690912254417388 L 4.395041327674503 -1.525502597768821 L 4.378558302521467 -1.532735154841144 L 4.367608507179387 -1.6795040275014141 Q 4.346117313542306 -1.7151428910642934 4.325354809991589 -1.7362655908516418 Q 4.304592306440872 -1.75738829063899 4.273457703374028 -1.7710497873311555 Q 4.210272773620726 -1.798774589441727 4.145442860397361 -1.7879080190788659 Q 4.0806129471739965 -1.7770414487160044 4.026252799039935 -1.73154997374714 Q 3.9718926509058727 -1.6860584987782756 3.9385425266279386 -1.610053438350391 Q 3.9011743150876033 -1.5248911417263757 3.9023836051908307 -1.451740354871782 Q 3.903592895294058 -1.378589568017188 3.9371472180955323 -1.325645187566242 Q 3.9707015408970054 -1.272700807115296 4.028392128932629 -1.2473868573621656 Q 4.076009757152509 -1.226492803597677 4.114143267816134 -1.225048724490734 Q 4.15227677847976 -1.2236046453837912 4.185551405627489 -1.2297527498217147 L 4.291907465480463 -1.305392610560287 L 4.307474767013886 -1.298561862214204 L 4.231794878653862 -1.1559520641713825 Q 4.182663247413604 -1.1534857284944624 4.1312517442655885 -1.1607560341318877 Q 4.079840241117573 -1.1680263397693131 4.006582351548527 -1.2001710378685264 M 4.383804759802188 -1.0285682566318661 L 4.392599564988152 -1.0419343107145391 L 4.482252226746595 -1.0308257446672788 L 4.783474304365862 -1.4886130969988298 L 4.737795668537241 -1.5665519334594553 L 4.746590473723204 -1.5799179875421283 L 5.1659504205670705 -1.3039809748325069 L 5.071406264817957 -1.160295893443772 L 5.058040210735284 -1.1690906986297358 L 5.068052628946787 -1.3025588651772613 L 4.871738709607527 -1.431732566346108 L 4.741465657790435 -1.2337478902465138 L 4.880138468898167 -1.142501786442137 L 4.968915493512998 -1.18464012884591 L 4.982281547595672 -1.175845323659946 L 4.860803300964544 -0.9912267016430248 L 4.847437246881871 -1.0000215068289888 L 4.849906326071416 -1.0965559755329486 L 4.711233514963683 -1.1878020793373254 L 4.569417281340013 -0.9722744572542228 L 4.788286416943784 -0.8282595223340619 L 4.915978532819014 -0.9022508971240126 L 4.929344586901687 -0.8934560919380485 L 4.826555301290732 -0.7372403348468075 L 4.383804759802188 -1.0285682566318661 M 4.936307564100463 -0.6594719059003664 L 4.94725603031905 -0.6711394286648809 L 5.025807431062629 -0.6481681979355183 L 5.367255253581203 -0.7007646283973276 L 5.409228453883769 -1.0494639981363059 L 5.387192411817532 -1.1195097892308108 L 5.398140878036119 -1.1311773119953252 L 5.594301104514519 -0.9471062236953345 L 5.583352638295931 -0.93543870093082 L 5.499012417204216 -0.9624706654580322 L 5.495591021510907 -0.9588245645941214 L 5.467658645727836 -0.7025419425084378 L 5.727438095421512 -0.7426372978111524 L 5.730175211976158 -0.745554178502281 L 5.700027865941077 -0.825954038744952 L 5.710976332159663 -0.8376215615094664 L 5.868487889480608 -0.6898172675585446 L 5.857539423262022 -0.6781497447940301 L 5.786235283212143 -0.6956916834482196 L 5.461659570362654 -0.6464615440187439 L 5.420954882642316 -0.2801159034037779 L 5.446042628502044 -0.20309249782029498 L 5.435094162283457 -0.1914249750557805 L 5.235287834941146 -0.3789174590490795 L 5.246236301159733 -0.39058498181359397 L 5.324103422764651 -0.36688453091144924 L 5.3268405393192975 -0.36980141160257785 L 5.3605269580432395 -0.6453685090462953 L 5.0832360605759375 -0.5997641432270213 L 5.080498944021291 -0.5968472625358927 L 5.113518229713381 -0.5151237850500189 L 5.102569763494794 -0.5034562622855044 L 4.936307564100463 -0.6594719059003664" fill="#40dff5" fill-rule="nonzero"></path></g><g><path d=" M -2.58603835783461 1.605103635448373 L -2.57027869687133 1.607866439517153 L -2.5446935648070292 1.693571754505503 L -2.0049251768146874 1.7881977938612137 L -1.9517120040625877 1.7163064992167631 L -1.9359523430993075 1.719069303285543 L -2.0186637899084054 2.19087415337374 L -2.188080145263666 2.1611740096343564 L -2.185317341194886 2.1454143486710757 L -2.0593689546343787 2.1045486671913185 L -2.019480970891369 1.8770185620339628 L -2.2529209489099546 1.836094526765161 L -2.2805489895977535 1.9936911363979615 L -2.2074295110656754 2.0572721230150073 L -2.2101923151344556 2.073031783978287 L -2.4259026745693513 2.0352159032868626 L -2.423139870500571 2.0194562423235825 L -2.3347228241590288 1.9841939974115306 L -2.3070947834712303 1.82659738777873 L -2.560234337693916 1.7822198474239532 L -2.615174262989003 1.8639609301704538 L -2.630933923952283 1.861198126101674 L -2.58603835783461 1.605103635448373 M -2.6955772902270594 2.3294144542127673 L -2.6795808326958825 2.3297511238628075 L -2.6412730371181437 2.4105750856437926 L -2.0933943666753394 2.422106021157681 L -2.051719874597195 2.3429654076268984 L -2.035723417066018 2.343302077276939 L -2.0411522151729216 2.6012449549671643 Q -2.0433616097513125 2.7062217075155117 -2.0881250107784153 2.765792991944226 Q -2.132888411805518 2.8253642763729405 -2.2088715850786076 2.823765095535248 Q -2.264859186437726 2.822586751760106 -2.308549743527465 2.783658802659386 Q -2.352240300617204 2.744730853558666 -2.3739095715712364 2.6812608394077246 L -2.6548461946739654 2.865390179274122 L -2.69222698642553 2.9306180598776344 L -2.7082234439567068 2.930281390227594 L -2.7051934171063423 2.7863132724470034 L -2.398178383102941 2.5987319063791277 L -2.3962214907620805 2.505752496979163 L -2.642167025303923 2.5005762011097894 L -2.684736086712128 2.574696879808952 L -2.700732544243305 2.574360210158911 L -2.6955772902270594 2.3294144542127673 M -2.095656075314409 2.5770927453440833 L -2.094288354861119 2.5121071366236776 L -2.3412336679986603 2.506909798901177 L -2.342727639570715 2.577894079195774 Q -2.3440532763177497 2.6408801307247822 -2.309434373075244 2.6831179282322997 Q -2.274815469832738 2.7253557257398167 -2.2198276470693177 2.726513027661831 Q -2.163840045710199 2.727691371436973 -2.1304845253717675 2.6873843092399774 Q -2.097129005033336 2.6470772470429815 -2.095656075314409 2.5770927453440833 M -2.6919367849709244 3.111838170511679 L -2.6760842818221495 3.1096706502884564 L -2.625615422834097 3.1835143654742737 L -2.0826671899885554 3.1092767978288856 L -2.053873533232733 3.0245954815269536 L -2.038021030083958 3.0224279613037304 L -1.9717761932617053 3.5069200887881644 L -2.142190602111036 3.5302209311878117 L -2.1443581223342587 3.514368428039037 L -2.0368358339238313 3.4370899867052156 L -2.0694841072861276 3.1983116580267934 L -2.3042993101773566 3.230418051333284 L -2.281269407805612 3.3988508972890177 L -2.19226104702377 3.4371459584709703 L -2.1900935268005473 3.452998461619745 L -2.407074663649404 3.48266639467511 L -2.4092421838726272 3.4668138915263347 L -2.3357623873795257 3.4063017480563467 L -2.3587922897512703 3.237868902100613 L -2.614413903025266 3.2728201657000837 L -2.5779724692723294 3.5393403748888623 L -2.4437440846639396 3.583564132818533 L -2.4415765644407164 3.599416635967308 L -2.621898787758031 3.6240721785064696 L -2.6919367849709244 3.111838170511679 M -2.5679110415156177 3.8745226625161564 L -2.5525872391071527 3.8699203718097457 L -2.4912662795539346 3.935033657086044 L -1.9664260470640025 3.7774052003914678 L -1.9511279945748945 3.6892804615831145 L -1.9358041921664293 3.684678170876704 L -1.7951466824517437 4.153011881985421 L -1.9598775583427441 4.202486507079339 L -1.9644798490491553 4.1871627046708735 L -1.8702584204245962 4.094128719547441 L -1.9395804241899115 3.8633139457699337 L -2.166564247365302 3.9314853768586464 L -2.1176649086096853 4.094300777448589 L -2.0237905251582378 4.1183132769355355 L -2.019188234451827 4.133637079344001 L -2.228932779917694 4.196630933388001 L -2.233535070624105 4.181307130979536 L -2.170340479388784 4.110121151751876 L -2.219239818144401 3.9473057511619345 L -2.466336131980902 4.0215176888028115 L -2.3889601194793673 4.279149116795132 L -2.2494935613748326 4.301998168645797 L -2.2448912706684214 4.3173219710542625 L -2.4191995230647128 4.369673027839688 L -2.5679110415156177 3.8745226625161564 M -2.327274289137223 4.605380744554213 L -2.312818620316556 4.598522637020266 L -2.24238891059515 4.653655712288733 L -1.7472822534872954 4.418765529251031 L -1.7454336191053648 4.329341916312826 L -1.7309779502846974 4.322483808778879 L -1.6195337028580503 4.557388427114722 L -1.6339893716787177 4.564246534648669 L -1.7087053986088405 4.500078666367284 L -2.204715535017987 4.735397481125858 L -2.100558026846159 4.954942951339743 L -1.9205300265111673 4.944798046442002 L -1.9136719189772196 4.959253715262669 L -2.114244323863978 5.0544099572961905 L -2.327274289137223 4.605380744554213 M -2.0156330993507034 5.2388877151683255 L -2.002478779430323 5.229779264837327 L -1.9389141932705412 5.263610365711163 L -1.2867376710399032 5.12340414669378 L -1.2611201544839679 5.16040067146985 L -1.621636943720308 5.7165487135222515 L -1.613092527780105 5.792126441433593 L -1.6262468477004854 5.801234891764593 L -1.7674278278309736 5.597342932998695 L -1.754273507910593 5.588234482667696 L -1.6762241012592887 5.641227785276415 L -1.5668231381064481 5.474250453697453 L -1.7051577275084993 5.274469219906673 L -1.8993811343687705 5.318946947227093 L -1.879514699961833 5.407362583762463 L -1.8926690198822136 5.416471034093463 L -2.0156330993507034 5.2388877151683255 M -1.64684635543138 5.26206825677941 L -1.5341292825852642 5.424852965794119 L -1.3882401502324715 5.203418187447651 L -1.64684635543138 5.26206825677941 M -1.4755806645052916 5.980532485177863 L -1.4643202490593614 5.969165733487734 L -1.3793354519938894 5.997050931492061 L -0.9950737749015258 5.609160530066395 L -1.0216385208259733 5.523724505615526 L -1.0103781053800431 5.5123577539253965 L -0.9059460742269794 5.615812820834879 L -0.972377341003042 6.225657790310342 L -0.672568779755154 5.923018026560646 L -0.7168674911343788 5.825644394759526 L -0.7056070756884487 5.8142776430693965 L -0.52871200251081 5.989517858446683 L -0.53997241795674 6.000884610136812 L -0.6235430170762084 5.9729927661172235 L -1.0528463559522923 6.406350174303406 L -1.0791319692357164 6.380310463584693 L -1.0058689692790839 5.719521137976785 L -1.330309689314944 6.0470256710486385 L -1.2867147539010897 6.145109724830391 L -1.2979751693470196 6.15647647652052 L -1.4755806645052916 5.980532485177863 M -0.5160502397832365 6.8207340364700855 Q -0.60029044807044 6.763222408882887 -0.6377246348801531 6.686811142319012 Q -0.6751588216898661 6.610399875755138 -0.6673158347429669 6.527969677673665 Q -0.6594728477960675 6.445539479592193 -0.6070357755842104 6.3687322308597425 Q -0.5670031720676313 6.310094438816689 -0.5079237043492746 6.272330481210055 Q -0.448844236630918 6.234566523603421 -0.38142275356227023 6.22005467944687 Q -0.3140012704936225 6.205542835290318 -0.246032150709515 6.216832155720426 Q -0.17806303092540743 6.228121476150534 -0.12025112327732668 6.267590240180963 Q -0.07895690352869744 6.295782214488414 -0.05371590636462553 6.3208848450709505 Q -0.028474909200553622 6.345987475653487 -0.011683402943372112 6.370164847669797 Q 0.005108103313809398 6.394342219686107 0.020339113566955724 6.421692106827895 L -0.07420337453425674 6.569041073378842 L -0.08906929364376315 6.55889196262816 L -0.07065982442691254 6.4237398577864155 Q -0.0868197653098477 6.380015078648494 -0.10359139673277817 6.354035040553576 Q -0.12036302815570887 6.328055002458659 -0.1500948663747219 6.307756780957295 Q -0.20955854281274777 6.267160337954567 -0.27651923263006284 6.265035245206161 Q -0.3434799224473779 6.2629101524577555 -0.40556113316829945 6.296203143843699 Q -0.467642343889221 6.329496135229643 -0.5133133422672901 6.3963927712224224 Q -0.5668780934514452 6.474851788744818 -0.5789219003248665 6.548359929219161 Q -0.5909657071982877 6.6218680696935035 -0.566797193825544 6.681352378224002 Q -0.5426286804528004 6.7408366867545 -0.48894619477958257 6.777486253354185 Q -0.44352255305609045 6.808497425092381 -0.40381237620930904 6.816840197700893 Q -0.36410219936252763 6.825182970309405 -0.32943860167149175 6.8258425119032475 L -0.21955471295519358 6.771303250810122 L -0.2055146782406596 6.780888522074655 L -0.3042498848830494 6.906001906527656 Q -0.3366581246294893 6.902038827353923 -0.3680498330237921 6.893926451371078 Q -0.3994415414180949 6.8858140753882315 -0.43503406973891967 6.868779641798255 Q -0.4706265980597444 6.85174520820828 -0.5160502397832365 6.8207340364700855 M -0.069730600151583 7.084074491875365 L -0.06299511867729275 7.069561281020785 L 0.02640963928133186 7.066955661255787 L 0.25709987977577287 6.569878189486428 L 0.20137252918859944 6.499917754978528 L 0.2081080106628897 6.4854045441239485 L 0.6516680174059848 6.6912576966819435 L 0.5792615915573647 6.847274713368677 L 0.5647483807027849 6.840539231894386 L 0.5577628969220356 6.708311386807397 L 0.33915765842492734 6.6068581971009 L 0.23938833908700302 6.821835132884363 L 0.3935912044169134 6.893399623548698 L 0.4738852984853559 6.839160721847722 L 0.48839850933993567 6.845896203322011 L 0.39620660666058793 7.044545776894073 L 0.38169339580600814 7.037810295419782 L 0.3704379868490406 6.9432887858613155 L 0.21623512151913027 6.871724295196981 L 0.10762548274620007 7.10574982022708 L 0.3516288402388229 7.218990102513585 L 0.4613304165024985 7.129891482068233 L 0.4758436273570783 7.136626963542523 L 0.3992275255870267 7.301714737013368 L -0.069730600151583 7.084074491875365 M 1.1163131838453673 7.532544221509078 Q 1.0559554409206717 7.5183687896272495 1.0167237396445286 7.4973420539086595 Q 0.9774920383683852 7.476315318190069 0.9379691151223538 7.443407286676647 L 0.9657302989832073 7.281464961540061 L 0.9813064907057093 7.285123137509565 L 1.0047731620579072 7.399518571577747 Q 1.0329605134907167 7.436954826988823 1.0629733349267645 7.457870862689881 Q 1.0929861563628123 7.478786898390938 1.1270590757557857 7.486789158324228 Q 1.1844962827325123 7.500278682211775 1.224196650092415 7.477759116685577 Q 1.263897017452318 7.455239551159377 1.2760147253513006 7.40364341607859 Q 1.286074709267437 7.360808888841709 1.2728071255579876 7.332012687312466 Q 1.2595395418485382 7.303216485783223 1.2284647564444136 7.2758877881909925 Q 1.1973899710402889 7.2485590905987625 1.15443027185982 7.212789491127652 Q 1.1141624726292263 7.178679311633481 1.0872952051577278 7.148743548095282 Q 1.0604279376862296 7.118807784557083 1.0508516319229382 7.085228857118465 Q 1.041275326159647 7.051649929679847 1.0517925820719713 7.0068683784776535 Q 1.0595662060071676 6.9737689710673365 1.0830598236590532 6.945902325599556 Q 1.1065534413109386 6.918035680131775 1.1403573867661367 6.898753738537059 Q 1.1741613322213347 6.879471796942345 1.2122648655760933 6.872498939143508 Q 1.2503683989308518 6.8655260813446715 1.2873618542717944 6.874214249272244 Q 1.332143405473988 6.884731505184568 1.3675953768185527 6.904356940919454 Q 1.4030473481631174 6.923982376654341 1.438388619490149 6.952826692229323 L 1.4115419796216715 7.110874969435284 L 1.3959657878991694 7.1072167934657795 L 1.3751910164968466 6.994480779374536 Q 1.3470626330543176 6.96116720789218 1.3243806354833327 6.944027284141186 Q 1.3016986379123479 6.926887360390194 1.268599230502031 6.919113736454998 Q 1.2257647032651504 6.909053752538862 1.1911605318166232 6.931742986072874 Q 1.1565563603680962 6.954432219606886 1.1464963764519598 6.997266746843767 Q 1.1348359405491655 7.046915857959242 1.1584986860658342 7.081748665405863 Q 1.1821614315825026 7.116581472852484 1.2390968704988157 7.162823832171693 Q 1.2916220214980345 7.205975987535119 1.3237587708702363 7.239717347018523 Q 1.3558955202424379 7.273458706501927 1.3668472599758068 7.309928685893373 Q 1.3777989997091757 7.34639866528482 1.3661385638063814 7.396047776400295 Q 1.355392671895963 7.441802839585145 1.3278058543104982 7.471789795007567 Q 1.3002190367250335 7.501776750429988 1.2640661453171012 7.51793900407378 Q 1.227913253909169 7.534101257717572 1.1886629225824268 7.537209551580923 Q 1.1494125912556843 7.5403178454442745 1.1163131838453673 7.532544221509078 M 1.5711508198904254 7.625164264996953 L 1.5719999051895843 7.609186810438897 L 1.6530113003178848 7.573435532708354 L 1.7030098130903353 7.028320729459953 L 1.6193067759198783 6.982814668671954 L 1.6201558612190374 6.966837214113897 L 1.8048951795465626 6.976654762885424 L 2.0073375935314592 7.520163795947403 L 2.265245589000558 7.001119033067446 L 2.4409975891391764 7.0104589713581955 L 2.4401485038400175 7.026436425916252 L 2.3541441541623245 7.061922364490807 L 2.34203902813406 7.61005233623459 L 2.4098176785776584 7.653710720813551 L 2.408968593278499 7.669688175371608 L 2.1792926840064406 7.657482574196196 L 2.1801417693055996 7.64150511963814 L 2.25610714205331 7.606487093661489 L 2.272283673734865 7.113651096779407 L 2.0042739356217134 7.653188658286036 L 1.9593373446771802 7.650800605882151 L 1.7536435166895337 7.0930990287570825 L 1.7148708688991552 7.577724329152474 L 1.7936870871826147 7.620967868964729 L 1.7928380018834555 7.636945323522785 L 1.5711508198904254 7.625164264996953 M 2.6555771660018284 7.6498564528177555 L 2.6531854802451416 7.634036217698097 L 2.7115335688506077 7.591840239737056 L 2.8725774291327015 6.9444942155232345 L 2.9170718404067397 6.937767599332553 L 3.257872004094411 7.506211306686638 L 3.329500531610524 7.531791651599744 L 3.3318922173672108 7.547611886719402 L 3.086678573012511 7.584683015948045 L 3.084286887255824 7.568862780828386 L 3.1662158481809843 7.522090509537336 L 3.0644046294958978 7.350380067950759 L 2.8241348086160913 7.386703795380437 L 2.7786200877493616 7.580686810576159 L 2.8667586543605257 7.6017484599828276 L 2.869150340117212 7.617568695102486 L 2.6555771660018284 7.6498564528177555 M 2.8386549768119895 7.328883688881375 L 3.0344303864177578 7.299286577642379 L 2.8997705131058167 7.070849018297134 L 2.8386549768119895 7.328883688881375 M 3.5513081770262644 7.488397721114148 L 3.5463170017015857 7.473196136694151 L 3.6098469854898783 7.410236299020763 L 3.438899230619635 6.889582032635839 L 3.3504133702079497 6.876533948209238 L 3.345422194883271 6.86133236378924 L 3.590547743655735 6.780849661678797 Q 3.6903081414119705 6.748095073610593 3.761358890414057 6.770551499556022 Q 3.8324096394161438 6.793007925501449 3.856117722208367 6.8652154514964385 Q 3.8735868358447427 6.9184209969664305 3.8513647792190104 6.972554445030662 Q 3.829142722593278 7.026687893094892 3.7764612984687624 7.068192923539561 L 4.043389836264735 7.272100146830214 L 4.117326516477752 7.28571511356091 L 4.122317691802431 7.300916697980907 L 3.985503432022451 7.345837275903015 L 3.7066638382188764 7.118475271761035 L 3.6183046287776395 7.14748647833573 L 3.6950439493945733 7.381210838793196 L 3.779091263132802 7.396768764535009 L 3.7840824384574807 7.411970348955006 L 3.5513081770262644 7.488397721114148 M 3.5858526312305714 6.8402799226517645 L 3.52409619452433 6.860556572408272 L 3.6011474635990566 7.095231031891988 L 3.6686044944627967 7.073082691388726 Q 3.728460733116538 7.053429938547804 3.7568156724542767 7.006755562117549 Q 3.785170611792015 6.960081185687294 3.7680134466134323 6.907825739243551 Q 3.750544332977057 6.854620193773559 3.701451948022559 6.836531862189927 Q 3.6523595630680616 6.818443530606296 3.5858526312305714 6.8402799226517645 M 4.387538033424897 7.172462870733512 L 4.380328838542527 7.158179050896088 L 4.451579725320512 7.077412033287716 L 4.204214225919216 6.587298465116065 L 4.058697811325447 6.660742137980202 L 4.064226054998158 6.822613810986615 L 4.049942235160732 6.829823005868985 L 3.9589261497708206 6.649489780421492 L 4.480285573836839 6.386354167215014 L 4.5713016592267515 6.566687392662507 L 4.557017839389326 6.573896587544875 L 4.430077127098501 6.473303071038601 L 4.2845607125047325 6.546746743902738 L 4.531926211906028 7.036860312074389 L 4.639223073095859 7.0275123936531445 L 4.646432267978228 7.04179621349057 L 4.387538033424897 7.172462870733512 M 4.987231645095086 7.075960284325363 L 4.975885468817227 7.05828928311231 Q 4.9993410008570045 7.017084453095296 5.000200814536431 6.9832575300836375 Q 5.001060628215857 6.949430607071979 4.984311510853302 6.923344843376519 Q 4.969183275816156 6.899783508425782 4.948669381706463 6.8909698741891985 Q 4.928155487596769 6.882156239952615 4.900094757980649 6.884724401437224 L 4.861759271588016 6.8879478286568565 L 4.853831901758599 6.8811539484998585 L 4.851220007534103 6.82341160694221 Q 4.851167106078623 6.810373309452277 4.852402869723243 6.803043719544606 Q 4.853638633367864 6.795714129636935 4.86037044335379 6.791391776769179 Q 4.867102253339715 6.787069423901423 4.886269996536031 6.785457710291607 Q 4.922081054183942 6.783855165397384 4.954096299999177 6.801327258442869 Q 4.9861115458144125 6.8187993514883525 5.006102427827784 6.849933972673256 Q 5.034738015576668 6.8945322138300105 5.032664304622564 6.950529532720104 Q 5.030590593668461 7.0065268516101975 4.987231645095086 7.075960284325363 M 5.670844777173898 6.300908680470922 Q 5.600955228254075 6.366722440064062 5.517196490271174 6.387905542091661 Q 5.433437752288272 6.40908864411926 5.352429958808532 6.385786554179862 Q 5.271422165328792 6.362484464240465 5.207665085722938 6.2947789637243865 Q 5.154876966049273 6.238721721361612 5.130336010025742 6.172547772730363 Q 5.105795054002211 6.106373824099115 5.108582192869544 6.0371298217817 Q 5.111369331736877 5.967885819464284 5.139452244464522 5.904353544101824 Q 5.167535157192166 5.840821268739363 5.221408351151196 5.7900898290529845 Q 5.259265190149434 5.754440709273367 5.29031514710352 5.733443086237666 Q 5.321365104057607 5.712445463201966 5.350018731913851 5.700572400805268 Q 5.3786723597700945 5.68869933840857 5.409382667613624 5.679010324415616 L 5.526140147587241 5.795705186642753 L 5.514491889433938 5.806674146574943 L 5.39038812116081 5.769697739226338 Q 5.339930203631293 5.777378791145473 5.310912567707758 5.7895946335400525 Q 5.281894931784224 5.801810475934632 5.254230318670127 5.827861755773583 Q 5.198173076307352 5.880649875447247 5.177458368090486 5.94617201570144 Q 5.156743659873619 6.011694155955633 5.172096371049919 6.077592139684554 Q 5.187449082226218 6.143490123413475 5.2381805219125965 6.197363317372505 Q 5.3067365214887845 6.270164930830654 5.38129831010434 6.29610312040605 Q 5.455860098719896 6.322041309981445 5.526362818907137 6.306473187223725 Q 5.596865539094379 6.290905064466004 5.652194765322573 6.238802504788101 Q 5.676219297763762 6.216179024927959 5.69568154988545 6.192357380518896 Q 5.715143802007138 6.168535736109832 5.730256054503423 6.136448046500131 L 5.617138655202713 6.016325384294185 L 5.524922819394486 6.0482195785337325 L 5.513953859462295 6.036571320380428 L 5.694501860838505 5.866552441431483 L 5.705470820770695 5.878200699584787 L 5.6847167873023325 5.95680903307936 L 5.792349706636948 6.071107566208655 Q 5.784912244285151 6.130307939127798 5.751539035103423 6.193327609937099 Q 5.718165825921695 6.256347280746399 5.670844777173898 6.300908680470922 M 6.052657386160003 5.890624818149996 L 6.039881497164844 5.880992753969179 L 6.056102095581033 5.793033148541342 L 5.618527897496843 5.463134950348357 L 5.53842785410486 5.502934234872107 L 5.525651965109701 5.49330217069129 L 5.820031926635925 5.102839063276749 L 5.957372733333882 5.206383753220533 L 5.947740669153064 5.219159642215692 L 5.816992732175299 5.198231742749707 L 5.671909765451741 5.390668570739287 L 5.861152621192532 5.53334352141764 L 5.963493303113713 5.3975997008440775 L 5.92731857951638 5.307708714796218 L 5.936950643697197 5.294932825801059 L 6.111820624318434 5.426771704275993 L 6.102188560137617 5.4395475932711514 L 6.007410421534572 5.4307099214656365 L 5.90506973961339 5.566453742039199 L 6.111080949660326 5.721770776954875 L 6.273020028700314 5.506976143223767 L 6.208935658501907 5.381015063932291 L 6.218567722682724 5.368239174937132 L 6.3638934600026555 5.477803904993927 L 6.052657386160003 5.890624818149996 M 6.562968604719389 5.148647661006889 L 6.548832950525708 5.141152110292186 L 6.560341007008402 5.034065394794926 L 6.075311372487746 4.776874310896673 L 5.998950449581707 4.920881287994791 L 6.096965681948657 5.049823190509268 L 6.089470131233953 5.063958844702949 L 5.911007497038739 4.9693275169298206 L 6.1845950981254045 4.453376138860488 L 6.363057732320619 4.548007466633615 L 6.355562181605916 4.5621431208272964 L 6.193834768163989 4.553354278959103 L 6.117473845257951 4.697361256057221 L 6.6025034797786075 4.954552339955473 L 6.684689807229703 4.884943378031729 L 6.698825461423383 4.892438928746433 L 6.562968604719389 5.148647661006889 M 6.959308546867676 4.26482703149674 L 6.943922875213074 4.260436005678461 L 6.9274138251679656 4.172530082859756 L 6.400454570997865 4.022137448583701 L 6.340035262769966 4.08808824231101 L 6.324649591115365 4.083697216492732 L 6.396003760662398 3.833680052105458 Q 6.428387576072206 3.7202107236527717 6.489358965269382 3.6632568853328964 Q 6.550330354466557 3.6063030470130206 6.639759570958928 3.631825884581767 Q 6.692647817271621 3.646920035832101 6.723224540842565 3.694643866102377 Q 6.753801264413508 3.7423676963726527 6.7601400535438865 3.811252163071326 Q 6.766478842674264 3.880136629769999 6.744249274469227 3.958026592521419 L 6.7261362929688255 4.02149248809665 L 6.952113345395785 4.085985679802622 L 7.015277044760108 4.0104188412911865 L 7.030662716414709 4.014809867109466 L 6.959308546867676 4.26482703149674 M 6.4241924867472715 3.935318606412925 L 6.673248046656133 4.006398336846316 L 6.69657537131574 3.9246619561812457 Q 6.718256061293493 3.8486952023866507 6.696468862423755 3.7956804123237777 Q 6.674681663554018 3.7426656222609047 6.620831812762913 3.727297031896928 Q 6.5535194992740315 3.7080862939419577 6.51122278077251 3.7433316851868152 Q 6.468926062270989 3.7785770764316724 6.445598737611382 3.860313457096743 L 6.4241924867472715 3.935318606412925 M 7.1301657383826935 3.639970164828694 L 7.114283999890736 3.638028417555472 L 7.089294903343963 3.5704966098366193 L 6.508915927775149 3.2416315239462286 L 6.514377091981087 3.196964134437597 L 7.153428717507474 3.0212199455945994 L 7.197293695820998 2.9590840970242773 L 7.213175434312956 2.9610258442974997 L 7.183078351578007 3.207192790922845 L 7.167196613086049 3.2052510436496227 L 7.144127528793363 3.113775268988257 L 6.951392987136871 3.165769465322674 L 6.921902700424804 3.4069733686692825 L 7.0965547205994115 3.502877862041222 L 7.14049758807924 3.4236249479140417 L 7.156379326571198 3.425566695187264 L 7.1301657383826935 3.639970164828694 M 6.870100486063956 3.377468613335391 L 6.8941296085700845 3.1809320994974133 L 6.63793331800317 3.249345992090606 L 6.870100486063956 3.377468613335391 M 7.209618871899548 2.7493508605449692 L 7.193620693490956 2.7495922888093847 L 7.152418106147399 2.670204967427463 L 6.604480495653121 2.6784738854836916 L 6.565692190953718 2.7590683481876908 L 6.5496940125451255 2.759309776452106 L 6.545921695913634 2.509338238817855 L 6.561919874322227 2.5090968105534395 L 6.603122461665784 2.588484131935361 L 7.151060072160062 2.5802152138791326 L 7.189848376859465 2.499620751175134 L 7.2058465552680575 2.499379322910718 L 7.209618871899548 2.7493508605449692 M 7.198787628417025 2.25397259209924 L 7.182978848067821 2.2564388572655627 L 7.131125571363198 2.1835606184353478 L 6.589674844402955 2.2680302003818946 L 6.562484219361557 2.353239765043722 L 6.546675439012353 2.3557060302100443 L 6.5015119581540715 2.066207740065243 Q 6.484556385135604 1.9575223751644644 6.511067244550967 1.8744430496191828 Q 6.53757810396633 1.7913637240739013 6.598522686748193 1.7408661218581074 Q 6.659467269530057 1.6903685196423135 6.74443946390703 1.67711234437333 Q 6.8215072681094 1.6650893016875075 6.890803238731589 1.6810992503297966 Q 6.960099209353778 1.6971091989720855 7.014924345900358 1.7371367445207304 Q 7.069749482446938 1.7771642900693752 7.106368930737958 1.8367316133839353 Q 7.142988379028978 1.8962989366984955 7.15470313856901 1.9713906433572153 L 7.198787628417025 2.25397259209924 M 6.559399896781049 2.0804550753079902 L 6.574814054070565 2.1792599524905163 L 7.118240878574459 2.0944820873981795 L 7.100514597691515 1.9808564786382743 Q 7.088183271859903 1.9018125768922534 7.04606635598939 1.8491754664324633 Q 7.003949440118877 1.7965383559726735 6.938328981105426 1.77489452639323 Q 6.872708522091975 1.7532506968137864 6.789712425258653 1.7661985889369798 Q 6.707704377197157 1.778992339487278 6.6508838592907225 1.8202437484916336 Q 6.594063341384289 1.8614951574959895 6.569949389875282 1.9275009704416783 Q 6.545835438366275 1.9935067833873674 6.559399896781049 2.0804550753079902" fill="#47e2f7" fill-rule="nonzero"></path></g><g clip-path="url(#SvgjsClipPath1004)"><g clip-path="url(#SvgjsClipPath1000edf05b54-ac19-41dd-8ad7-5afc2a9f1bee)"><path d=" M 2.2500114340840867 3.9010994076229033 L 2.249261249777253 3.9024023593137187 L 2.249261249777253 3.9024023593137187 L 2.249261249777253 3.9062266071335188 L 2.2567687333290993 3.898752966482732 L 2.7891175670055133 4.828417458605495 C 3.006417657317096 5.183120004190752 3.392770249961867 5.399040084649961 3.808742130629708 5.398252945689555 L 4.506046904556883 5.398252945689555 L 2.9465378212868765 2.699123652603021 Z" fill="#40dff5" transform="matrix(1,0,0,1,0,0)" fill-rule="nonzero"></path></g><g clip-path="url(#SvgjsClipPath1000edf05b54-ac19-41dd-8ad7-5afc2a9f1bee)"><path d=" M 2.2460405336930274 1.495675731387024 L 2.2464410080222392 1.495004513849331 L 2.2465312557583994 1.4948522207945598 L 1.7019256514146957 0.5548148794968545 C 1.4920037766219951 0.2174067964105079 1.1171428830290646 -0.000011280967019891644 0.6897972903753266 -0.000011280967019891644 L 0 -0.000011280967019891644 L 1.5442290134413414 2.672709268325562 L 2.1487421931450497 1.6588605598156339 Z" fill="#40dff5" transform="matrix(1,0,0,1,0,0)" fill-rule="nonzero"></path></g><g clip-path="url(#SvgjsClipPath1000edf05b54-ac19-41dd-8ad7-5afc2a9f1bee)"><path d=" M 2.247270159098213 1.4961213295843154 L 2.2465312557583994 1.4948522207945592 L 2.2464410080222392 1.4950045138493298 L 2.246040533693027 1.495681371870533 L 2.247270159098213 1.4961213295843154 Z" fill="#5fe6f8" transform="matrix(1,0,0,1,0,0)" fill-rule="nonzero"></path></g><g clip-path="url(#SvgjsClipPath1000edf05b54-ac19-41dd-8ad7-5afc2a9f1bee)"><path d=" M 2.246040533693027 1.495681371870533 L 2.2464410080222392 1.4950045138493298 L 2.246040533693027 1.495681371870533 L 2.246040533693027 1.495681371870533 Z" fill="#5fe6f8" transform="matrix(1,0,0,1,0,0)" fill-rule="nonzero"></path></g><g clip-path="url(#SvgjsClipPath1000edf05b54-ac19-41dd-8ad7-5afc2a9f1bee)"><path d=" M 2.2492894521948035 3.9024023593137187 L 2.250039636501637 3.9010994076229033 L 3.063211222691799 2.4971266571419104 L 4.506046904556883 0 L 3.8087421306297093 0 C 3.4004472418253857 -0.0012358041585584175 3.0204984284834886 0.2085887761785775 2.8040874102411273 0.5548148794968545 L 2.3847569446551384 1.2786186449541384 L 2.2567687333290993 1.4995169006573528 L 2.247270159098213 1.4961326105513364 L 2.2460405336930274 1.4956870123540447 L 1.5442290134413414 2.6727149088090716 L 1.5442290134413414 2.6727149088090716 L 1.5594978023029864 2.699123652603021 L 0 5.398252945689554 L 0.6897972903753266 5.398252945689554 C 1.1246221641633614 5.398252945689554 1.4995112601738418 5.17333302524369 1.7169293375513692 4.828417458605495 L 2.0669100583815676 4.217180822557834 L 2.2492894521948035 3.898752966482732 L 2.2492894521948035 3.898752966482732 Z M 2.2567969357466495 1.499556384041922 L 2.2567969357466495 1.499556384041922 Z" fill="#5fe6f8" transform="matrix(1,0,0,1,0,0)" fill-rule="nonzero"></path></g><g clip-path="url(#SvgjsClipPath1000edf05b54-ac19-41dd-8ad7-5afc2a9f1bee)"><path d=" M 2.2492612497772533 3.9024023593137196 L 2.2500170745675963 3.9010994076229024 L 2.2492612497772533 3.9024023593137196 L 2.2492612497772533 3.9024023593137196 Z" fill="#5fe6f8" transform="matrix(1,0,0,1,0,0)" fill-rule="nonzero"></path></g><g clip-path="url(#SvgjsClipPath1000edf05b54-ac19-41dd-8ad7-5afc2a9f1bee)"><path d=" M 2.246040533693027 1.495681371870533 L 2.246040533693027 1.495681371870533 L 2.1487421931450497 1.6588605598156343 L 1.5442346539248515 2.672714908809072 L 1.5442346539248515 2.672714908809072 L 2.246040533693027 1.495681371870533 Z" fill="#5fe6f8" transform="matrix(1,0,0,1,0,0)" fill-rule="nonzero"></path></g></g><g transform="matrix(0.6325914561254015,-0.7744856678061539,0.7744856678061539,0.6325914561254015,-1.0898008193177917,-1.2201840140033497)"><g clip-path="url(#SvgjsClipPath1005)"><path d=" M -1.831144707763579 0.7139385627089332 C -1.8262237970492932 0.7139385627089332 -1.819220382763579 0.7103420984232189 -1.813541414906436 0.7067456341375047 C -1.7077342970492932 0.6386066341375046 -1.6399721720492932 0.5587306698517904 -1.6399721720492932 0.4777197734232189 C -1.6399721720492932 0.4082541734232189 -1.687861139906436 0.35979881628036176 -1.748240822049293 0.35979881628036176 C -1.7859067863350075 0.35979881628036176 -1.8141099577635789 0.3806193294946475 -1.831144707763579 0.41185042235179037 C -1.8478004291921504 0.38080862842321894 -1.8761931149064361 0.35979881628036176 -1.9138590791921504 0.35979881628036176 C -1.9742391920492932 0.35979881628036176 -2.0223159513350075 0.4082541734232189 -2.0223159513350075 0.4777197734232189 C -2.0223159513350075 0.5587306698517904 -1.954554257049293 0.6386066341375046 -1.8487480006207218 0.7067456341375047 C -1.8428795184778646 0.7103420984232189 -1.8358761041921503 0.7139385627089332 -1.831144707763579 0.7139385627089332 Z" fill="#88e9f7" transform="matrix(1,0,0,1,0,0)" fill-rule="nonzero"></path></g></g><g transform="matrix(-0.6325914561254015,-0.7744856678061539,-0.7744856678061539,0.6325914561254015,10.762809303272354,5.105773106578663)"><g clip-path="url(#SvgjsClipPath1006)"><path d=" M 6.336801302782013 0.7139385627089332 C 6.341722213496299 0.7139385627089332 6.348725627782013 0.7103420984232189 6.354404595639156 0.7067456341375047 C 6.460211713496299 0.6386066341375046 6.527973838496299 0.5587306698517904 6.527973838496299 0.4777197734232189 C 6.527973838496299 0.4082541734232189 6.480084870639156 0.35979881628036176 6.419705188496299 0.35979881628036176 C 6.382039224210585 0.35979881628036176 6.353836052782013 0.3806193294946475 6.336801302782013 0.41185042235179037 C 6.320145581353442 0.38080862842321894 6.291752895639156 0.35979881628036176 6.2540869313534415 0.35979881628036176 C 6.193706818496299 0.35979881628036176 6.145630059210585 0.4082541734232189 6.145630059210585 0.4777197734232189 C 6.145630059210585 0.5587306698517904 6.213391753496299 0.6386066341375046 6.31919800992487 0.7067456341375047 C 6.3250664920677275 0.7103420984232189 6.332069906353442 0.7139385627089332 6.336801302782013 0.7139385627089332 Z" fill="#88e9f7" transform="matrix(1,0,0,1,0,0)" fill-rule="nonzero"></path></g></g></g><defs><clipPath id="SvgjsClipPath1004"><path d=" M 0 0 h 4.506035623589863 v 5.398258586173063 h -4.506035623589863 Z"></path></clipPath><clipPath id="SvgjsClipPath1000edf05b54-ac19-41dd-8ad7-5afc2a9f1bee"><path d=" M 0 0 L 4.506035623589863 0 L 4.506035623589863 5.398258586173063 L 0 5.398258586173063 Z"></path></clipPath><clipPath id="SvgjsClipPath1005"><path d=" M -2.1324551934778646 0.2370409377089332 h 0.603 v 0.603 h -0.603 Z"></path></clipPath><clipPath id="SvgjsClipPath1006"><path d=" M 6.0354908170677275 0.2370409377089332 h 0.603 v 0.603 h -0.603 Z"></path></clipPath></defs></svg>